<?xml version="1.0" encoding="UTF-8"?>
<!DOCTYPE svg PUBLIC "-//W3C//DTD SVG 1.1//EN" "http://www.w3.org/Graphics/SVG/1.1/DTD/svg11.dtd">
<!-- Creator: CorelDRAW X7 -->
<svg xmlns="http://www.w3.org/2000/svg" xml:space="preserve" width="231.51mm" height="26.4582mm" version="1.1" style="shape-rendering:geometricPrecision; text-rendering:geometricPrecision; image-rendering:optimizeQuality; fill-rule:evenodd; clip-rule:evenodd"
viewBox="0 0 23151 2646"
 xmlns:xlink="http://www.w3.org/1999/xlink">
 <defs>
  <style type="text/css">
   <![CDATA[
    .str0 {stroke:#70DB93;stroke-width:52.92}
    .str1 {stroke:#70DB93;stroke-width:20}
    .fil0 {fill:#FEFEFE}
    .fil1 {fill:#70DB93}
    .fil2 {fill:#70DB93;fill-rule:nonzero}
   ]]>
  </style>
 </defs>
 <g id="Layer_x0020_1">
  <metadata id="CorelCorpID_0Corel-Layer"/>
  <path class="fil0 str0" d="M742 95l1563 0c246,0 447,201 447,446l0 1563c0,246 -201,447 -447,447l-1563 0c-245,0 -446,-201 -446,-447l0 -1563c0,-245 201,-446 446,-446z"/>
  <path class="fil1 str1" d="M1524 310c149,0 270,121 270,270 0,149 -121,270 -270,270 -150,0 -271,-121 -271,-270 0,-149 121,-270 271,-270zm-40 995l80 0 0 -165c0,-33 5,-67 17,-101 18,-46 44,-86 78,-119 63,-59 157,-88 282,-88 42,0 84,9 127,28l-6 259 -21 -8 -54 -15c-9,0 -17,0 -25,0 -6,0 -11,0 -13,0 -65,0 -98,36 -98,109l0 100 207 0 -8 205 -178 0 0 517 0 46c0,32 7,56 23,70 15,14 42,23 82,28l18 0 -6 165 -392 0 -147 0 -392 0 -6 -165 18 0c40,-5 68,-14 83,-28 15,-14 22,-38 22,-70l0 -46 0 -517 -178 0 -8 -205 207 0 0 -100c0,-73 -32,-109 -98,-109 -2,0 -7,0 -13,0 -8,0 -16,0 -25,0l-54 15 -21 8 -5 -259c42,-19 84,-28 126,-28 125,0 219,29 282,88 34,33 61,73 79,119 11,34 17,68 17,101l0 165zm40 838c8,-7 15,-17 20,-27 8,-15 14,-40 20,-73l0 -31 0 -502 -80 0 0 502 0 31c5,33 12,58 19,73 6,10 13,20 21,27z"/>
  <path class="fil2" d="M4330 1928l-360 0 -368 -549c-7,-10 -18,-34 -34,-69l-4 0 0 618 -285 0 0 -1263 285 0 0 597 4 0c8,-17 19,-40 36,-70l349 -527 339 0 -441 602 479 661z"/>
  <polygon id="1" class="fil2" points="4735,1928 4450,1928 4450,665 4735,665 "/>
  <path id="2" class="fil2" d="M4964 1880l0 -282c51,43 107,75 167,96 59,22 120,32 181,32 36,0 67,-3 94,-9 27,-7 49,-16 67,-27 18,-12 31,-25 40,-41 9,-15 13,-32 13,-50 0,-25 -7,-47 -21,-66 -14,-20 -33,-38 -58,-54 -24,-17 -53,-33 -87,-48 -33,-15 -69,-31 -108,-47 -99,-40 -172,-91 -221,-150 -48,-59 -72,-131 -72,-215 0,-66 13,-122 39,-170 27,-47 63,-86 108,-117 46,-30 99,-52 158,-67 60,-14 124,-22 191,-22 66,0 124,5 175,12 50,8 97,21 140,37l0 264c-21,-15 -44,-28 -69,-39 -25,-11 -51,-21 -77,-28 -26,-7 -53,-13 -79,-16 -26,-4 -51,-6 -74,-6 -33,0 -62,3 -88,10 -27,6 -49,15 -67,26 -18,11 -33,24 -43,40 -10,15 -15,33 -15,52 0,21 6,40 17,57 11,17 27,33 48,48 20,14 45,29 75,44 29,14 62,29 99,44 51,21 96,44 136,67 40,24 75,51 104,81 28,30 50,64 66,103 15,38 23,83 23,134 0,71 -14,130 -40,178 -27,48 -63,86 -109,116 -46,30 -99,51 -160,64 -61,13 -125,19 -193,19 -69,0 -135,-6 -197,-17 -63,-12 -117,-30 -163,-53z"/>
  <path id="3" class="fil2" d="M7145 1928l-310 0 -90 -281 -450 0 -89 281 -308 0 460 -1263 337 0 450 1263zm-466 -499l-135 -425c-10,-32 -17,-70 -22,-114l-7 0c-3,37 -10,74 -21,110l-138 429 323 0z"/>
  <path id="4" class="fil2" d="M8413 1928l-310 0 -90 -281 -449 0 -89 281 -308 0 460 -1263 337 0 449 1263zm-465 -499l-136 -425c-9,-32 -17,-70 -21,-114l-7 0c-3,37 -10,74 -22,110l-137 429 323 0z"/>
  <path id="5" class="fil2" d="M9708 1928l-288 0 -520 -794c-31,-46 -52,-81 -64,-104l-3 0c4,44 7,112 7,204l0 694 -269 0 0 -1263 307 0 501 769c23,35 44,69 63,103l4 0c-5,-29 -7,-87 -7,-174l0 -698 269 0 0 1263z"/>
  <polygon id="6" class="fil2" points="10779,1928 10494,1928 10494,665 10779,665 "/>
  <path id="7" class="fil2" d="M12202 1928l-287 0 -521 -794c-30,-46 -51,-81 -63,-104l-3 0c4,44 7,112 7,204l0 694 -269 0 0 -1263 306 0 502 769c23,35 44,69 63,103l4 0c-5,-29 -7,-87 -7,-174l0 -698 268 0 0 1263z"/>
  <polygon id="8" class="fil2" points="13222,896 12776,896 12776,1207 13185,1207 13185,1437 12776,1437 12776,1928 12491,1928 12491,665 13222,665 "/>
  <path id="9" class="fil2" d="M13963 1950c-181,0 -328,-59 -442,-176 -114,-118 -171,-272 -171,-461 0,-200 58,-361 174,-484 116,-124 269,-186 460,-186 180,0 326,60 437,178 111,118 167,274 167,467 0,198 -58,358 -173,480 -115,121 -266,182 -452,182zm13 -1061c-100,0 -179,37 -238,112 -59,75 -88,174 -88,297 0,125 29,224 88,297 59,73 136,109 231,109 98,0 175,-35 233,-106 58,-71 87,-169 87,-294 0,-132 -28,-234 -84,-306 -56,-73 -132,-109 -229,-109z"/>
  <polygon id="10" class="fil2" points="15604,896 15243,896 15243,1928 14958,1928 14958,896 14599,896 14599,665 15604,665 "/>
  <polygon id="11" class="fil2" points="16532,1928 15774,1928 15774,665 16502,665 16502,896 16059,896 16059,1178 16472,1178 16472,1408 16059,1408 16059,1697 16532,1697 "/>
  <path id="12" class="fil2" d="M17640 1883c-92,45 -213,67 -361,67 -194,0 -347,-57 -457,-171 -112,-114 -167,-266 -167,-455 0,-202 62,-366 187,-492 125,-126 287,-189 486,-189 123,0 227,16 312,47l0 274c-85,-50 -181,-75 -289,-75 -119,0 -215,37 -287,111 -73,75 -110,176 -110,304 0,122 35,219 104,292 68,72 161,108 277,108 111,0 213,-27 305,-81l0 260z"/>
  <polygon id="13" class="fil2" points="18953,1928 18668,1928 18668,1414 18145,1414 18145,1928 17860,1928 17860,665 18145,665 18145,1169 18668,1169 18668,665 18953,665 "/>
  <polygon id="14" class="fil2" points="20492,1928 19740,1928 19740,665 20025,665 20025,1697 20492,1697 "/>
  <polygon id="15" class="fil2" points="21450,896 21090,896 21090,1928 20804,1928 20804,896 20446,896 20446,665 21450,665 "/>
  <path id="16" class="fil2" d="M21620 1928l0 -1263 448 0c449,0 673,205 673,616 0,196 -61,353 -184,471 -122,117 -285,176 -489,176l-448 0zm285 -1032l0 801 141 0c123,0 220,-37 290,-111 70,-74 105,-175 105,-302 0,-120 -34,-215 -104,-284 -70,-69 -167,-104 -293,-104l-139 0z"/>
 </g>
</svg>
