<?xml version="1.0" encoding="UTF-8"?>
<!DOCTYPE svg PUBLIC "-//W3C//DTD SVG 1.1//EN" "http://www.w3.org/Graphics/SVG/1.1/DTD/svg11.dtd">
<!-- Creator: CorelDRAW X7 -->
<svg xmlns="http://www.w3.org/2000/svg" xml:space="preserve" width="200.66mm" height="30.48mm" version="1.1" style="shape-rendering:geometricPrecision; text-rendering:geometricPrecision; image-rendering:optimizeQuality; fill-rule:evenodd; clip-rule:evenodd"
viewBox="0 0 20066 3048"
 xmlns:xlink="http://www.w3.org/1999/xlink">
 <defs>
  <style type="text/css">
   <![CDATA[
    .str0 {stroke:#009846;stroke-width:49.38}
    .fil1 {fill:#FEFEFE}
    .fil2 {fill:#009846}
    .fil0 {fill:#71421A;fill-rule:nonzero}
   ]]>
  </style>
 </defs>
 <g id="Layer_x0020_1">
  <metadata id="CorelCorpID_0Corel-Layer"/>
  <g id="_2245331636512">
   <path class="fil0" d="M4204 848l-180 0 0 555c0,48 29,72 86,72l0 43 -399 0 0 -43c58,0 87,-24 87,-72l0 -555 -125 0 0 -71 531 0 0 71zm-531 1746l0 -741 230 0 0 337 269 -337 270 0 -314 362 341 379 -289 0 -277 -332 0 332 -230 0zm869 0l0 -741 234 0 0 741 -234 0zm459 -239c34,34 68,59 102,76 33,17 67,25 100,25 31,0 56,-7 76,-21 20,-15 30,-33 30,-56 0,-24 -8,-43 -26,-56 -17,-14 -56,-27 -116,-42 -84,-19 -143,-45 -177,-76 -35,-31 -52,-74 -52,-129 0,-71 27,-128 82,-173 54,-45 125,-67 211,-67 47,0 92,5 134,16 42,11 82,28 120,50l-73 145c-27,-19 -54,-34 -81,-44 -28,-10 -55,-15 -82,-15 -28,0 -51,6 -68,18 -18,11 -26,26 -26,44 0,19 7,34 22,45 16,11 45,22 89,32l10 2c95,22 157,47 187,74 20,18 35,40 46,65 10,26 16,54 16,85 0,78 -30,141 -89,189 -60,48 -139,72 -237,72 -60,0 -114,-9 -162,-27 -49,-17 -96,-45 -141,-82l105 -150zm878 -38l231 0 -87 -244c-2,-7 -6,-19 -11,-36 -4,-16 -10,-38 -18,-64 -5,19 -10,36 -14,53 -5,16 -10,32 -15,47l-86 244zm-325 277l294 -741 291 0 293 741 -230 0 -43 -133 -330 0 -44 133 -231 0zm1185 -277l230 0 -86 -244c-3,-7 -7,-19 -11,-36 -5,-16 -11,-38 -18,-64 -5,19 -10,36 -15,53 -5,16 -10,32 -15,47l-85 244zm-325 277l293 -741 291 0 294 741 -231 0 -43 -133 -329 0 -45 133 -230 0zm959 0l0 -741 224 0 321 381c6,8 16,24 31,47 14,24 29,52 46,84 -4,-31 -8,-58 -10,-82 -2,-24 -3,-45 -3,-64l0 -366 223 0 0 741 -223 0 -321 -382c-7,-8 -17,-24 -32,-47 -14,-24 -29,-51 -46,-83 5,31 8,59 10,83 3,24 4,45 4,63l0 366 -224 0zm1392 0l0 -741 234 0 0 741 -234 0zm421 0l0 -741 224 0 321 381c7,8 17,24 31,47 14,24 29,52 47,84 -5,-31 -8,-58 -11,-82 -2,-24 -3,-45 -3,-64l0 -366 223 0 0 741 -223 0 -321 -382c-7,-8 -17,-24 -31,-47 -15,-24 -30,-51 -47,-83 5,31 8,59 11,83 2,24 3,45 3,63l0 366 -224 0zm1014 0l0 -741 521 0 0 163 -295 0 0 129 278 0 0 158 -278 0 0 291 -226 0zm1520 -369c0,54 -11,104 -33,150 -23,47 -55,88 -98,125 -44,36 -93,64 -149,84 -56,20 -114,30 -174,30 -61,0 -119,-10 -174,-30 -56,-20 -105,-48 -147,-84 -44,-37 -77,-79 -100,-126 -22,-46 -34,-96 -34,-149 0,-53 12,-102 34,-149 23,-47 56,-89 100,-125 42,-37 91,-65 147,-85 55,-19 113,-29 174,-29 61,0 119,10 175,29 56,20 105,48 148,85 42,36 75,78 98,125 22,46 33,96 33,149zm-454 218c64,0 117,-21 159,-62 42,-41 63,-93 63,-156 0,-62 -21,-113 -63,-155 -43,-41 -96,-62 -159,-62 -64,0 -117,21 -160,62 -42,41 -63,93 -63,155 0,64 21,116 62,157 42,40 95,61 161,61zm701 151l0 -565 -190 0 0 -176 613 0 0 176 -191 0 0 565 -232 0zm536 0l0 -741 521 0 0 163 -295 0 0 129 278 0 0 158 -278 0 0 125 295 0 0 166 -521 0zm1291 -711l0 220c-32,-31 -64,-53 -95,-67 -32,-15 -66,-22 -102,-22 -66,0 -120,20 -161,59 -42,40 -62,92 -62,155 0,60 21,109 63,148 42,39 95,59 160,59 36,0 70,-8 102,-22 31,-14 63,-37 95,-68l0 221c-37,16 -74,27 -110,35 -36,8 -73,12 -110,12 -47,0 -90,-5 -129,-15 -39,-9 -75,-24 -108,-43 -64,-38 -112,-84 -145,-140 -34,-57 -50,-120 -50,-191 0,-56 10,-108 31,-154 21,-47 53,-89 96,-126 40,-36 86,-63 136,-81 51,-18 107,-27 169,-27 37,0 74,4 110,11 36,8 73,20 110,36zm131 711l0 -741 232 0 0 288 309 0 0 -288 232 0 0 741 -232 0 0 -301 -309 0 0 301 -232 0zm1326 0l0 -741 232 0 0 568 288 0 0 173 -520 0zm639 0l0 -741 235 0 0 741 -235 0zm1397 0l-217 0 -50 -320c-3,-23 -6,-48 -9,-76 -3,-27 -6,-57 -8,-90 -6,31 -16,70 -32,117 -3,10 -6,17 -8,22l-115 347 -155 0 -115 -347c-2,-5 -4,-12 -7,-22 -17,-47 -27,-85 -32,-117 -2,28 -5,56 -8,84 -3,27 -7,55 -11,82l-50 320 -216 0 132 -741 229 0 128 382c1,3 3,7 5,14 12,34 19,63 23,87 1,-13 4,-28 8,-44 5,-16 10,-35 18,-58l129 -381 230 0 131 741zm131 0l0 -741 234 0 0 741 -234 0zm543 0l0 -565 -190 0 0 -176 613 0 0 176 -191 0 0 565 -232 0zm536 0l0 -741 521 0 0 163 -295 0 0 129 278 0 0 158 -278 0 0 125 295 0 0 166 -521 0zm674 0l0 -741 178 0c132,0 225,6 280,17 55,10 103,29 144,54 54,33 95,74 123,125 28,52 42,110 42,175 0,66 -14,124 -42,175 -28,51 -69,93 -123,126 -41,25 -88,42 -140,53 -53,11 -135,16 -245,16l-39 0 -178 0zm230 -166l39 0c91,0 158,-16 199,-49 42,-32 63,-84 63,-155 0,-70 -21,-122 -63,-155 -41,-33 -108,-50 -199,-50l-39 0 0 409zm-14555 -1665l-225 0c-35,-79 -90,-141 -165,-187 -76,-47 -160,-70 -252,-70 -64,0 -119,15 -165,46 -46,31 -69,68 -69,111 0,33 17,66 52,100l-226 0c-34,-34 -51,-67 -51,-100 0,-66 49,-118 147,-156 98,-39 205,-58 321,-58 149,0 281,28 397,85 115,57 194,133 236,229zm822 85l-680 0 0 100c60,-29 135,-43 226,-43 96,0 178,26 246,77 67,51 101,113 101,187 0,74 -34,136 -101,187 -68,51 -150,77 -246,77 -59,0 -116,-17 -174,-50l18 -50c22,9 40,14 52,14 63,0 116,-18 160,-54 43,-36 65,-80 65,-131 0,-52 -22,-96 -65,-132 -44,-36 -97,-54 -160,-54 -42,0 -83,10 -122,29l0 413c0,16 9,29 26,40 18,12 38,17 61,17l0 43 -399 0 0 -43c23,0 43,-5 61,-16 17,-10 26,-24 26,-41l0 -57c-71,48 -146,72 -226,72 -95,0 -177,-26 -245,-78 -68,-51 -102,-113 -102,-186 0,-73 34,-135 102,-187 68,-51 150,-77 245,-77 91,0 166,14 226,43l0 -100 -625 0 0 -71 1530 0 0 71zm-905 471l0 -314c-40,-19 -80,-29 -122,-29 -62,0 -115,18 -159,54 -44,36 -66,80 -66,132 0,51 22,95 66,131 44,36 97,54 159,54 42,0 82,-9 122,-28zm2163 -471l-181 0 0 570c0,16 9,29 26,40 18,12 38,17 61,17l0 43 -399 0 0 -43c23,0 44,-5 61,-16 17,-10 26,-24 26,-41l0 -192c-32,15 -67,23 -104,23 -49,0 -95,-10 -139,-30l17 -71c35,16 75,24 122,24 35,0 70,-8 104,-24l0 -300 -536 0c86,18 154,47 202,87 49,39 74,87 74,141 0,57 -28,105 -84,144 -55,39 -130,64 -223,76 31,31 65,58 100,81 35,23 63,34 85,34 46,0 80,-12 104,-35l52 28c-78,76 -159,114 -243,114 -77,0 -155,-38 -234,-114 -68,-67 -135,-110 -199,-128l19 -49c44,13 93,19 146,19 74,0 135,-17 181,-52 47,-34 70,-80 70,-136 0,-61 -28,-111 -83,-151 -56,-39 -123,-59 -202,-59l-147 0 0 -71 1324 0 0 71zm465 0l-181 0 0 555c0,48 29,72 87,72l0 43 -399 0 0 -43c58,0 87,-24 87,-72l0 -555 -125 0 0 -71 531 0 0 71zm1188 0l-181 0 0 570c0,16 9,29 26,40 18,12 38,17 61,17l0 43 -399 0 0 -43c23,0 43,-5 61,-16 17,-10 26,-24 26,-41l0 -270c-50,-34 -139,-60 -269,-79 42,19 74,45 96,77 23,31 34,65 34,101 0,67 -32,125 -96,172 -64,47 -142,71 -233,71 -91,0 -169,-24 -233,-72 -65,-48 -97,-105 -97,-171 0,-70 32,-131 96,-181 64,-50 142,-75 234,-75 182,0 338,31 468,92l0 -235 -848 0 0 -71 1254 0 0 71zm-874 200c-38,0 -71,18 -98,55 -28,36 -41,80 -41,130 0,55 13,102 41,141 27,39 60,59 98,59 38,0 71,-19 98,-58 27,-38 40,-85 40,-142 0,-52 -13,-96 -40,-132 -27,-35 -60,-53 -98,-53zm2048 -200l-229 0 0 148 -225 0c-40,0 -73,7 -100,21 -26,13 -39,32 -39,56 0,21 10,37 31,49 21,12 47,18 77,18 18,0 44,-1 78,-3 34,-3 59,-4 74,-4 125,0 188,38 188,114 0,57 -25,102 -75,135 -51,33 -119,49 -207,49l-76 0c21,20 50,39 87,57 38,18 69,27 94,27 25,0 53,-6 83,-20l26 29c-69,51 -138,77 -208,77 -78,0 -152,-30 -222,-90 -62,-53 -105,-90 -130,-109 -24,-20 -48,-31 -72,-33l0 -43 249 0c11,17 28,38 50,63 48,0 90,-10 126,-29 35,-20 53,-45 53,-77 0,-29 -13,-51 -39,-68 -26,-16 -60,-25 -100,-25l-139 0c-45,0 -85,-12 -121,-37 -35,-25 -53,-56 -53,-91 0,-36 18,-66 52,-89 34,-23 75,-35 122,-35l191 0 0 -90 -429 0 0 -71 883 0 0 71zm-109 -335l-118 0c-31,0 -57,8 -77,23 -20,16 -31,36 -31,61 0,62 36,117 106,166l-225 0c-71,-49 -106,-104 -106,-166 0,-42 22,-76 67,-102 44,-26 106,-39 184,-39l200 0 0 57zm916 335l-873 0 0 -71 873 0 0 71zm-26 300c-37,-26 -115,-48 -234,-65 64,31 95,85 95,164 0,67 -32,125 -96,172 -64,47 -141,71 -233,71 -91,0 -169,-24 -233,-72 -65,-48 -97,-105 -97,-171 0,-66 32,-123 97,-170 64,-48 142,-72 233,-72 190,0 347,28 468,85l0 58zm-468 -100c-38,0 -70,18 -98,55 -27,36 -41,80 -41,130 0,57 14,108 41,150 27,43 60,64 98,64 38,0 70,-20 98,-62 27,-41 41,-92 41,-152 0,-52 -14,-96 -41,-132 -27,-35 -59,-53 -98,-53zm1780 -200l-626 0 0 143c53,-38 122,-57 208,-57 87,0 161,23 221,71 60,47 91,104 91,171 0,72 -31,132 -92,182 -61,50 -134,75 -220,75 -64,0 -116,-15 -157,-43l0 -57c21,9 41,14 61,14 56,0 104,-15 142,-45 38,-30 58,-67 58,-112 0,-48 -20,-88 -58,-121 -38,-33 -86,-50 -142,-50 -48,0 -86,10 -112,29l0 370c0,16 8,29 26,40 17,12 37,17 60,17l0 43 -399 0 0 -43c23,0 43,-5 61,-16 17,-10 26,-24 26,-41l0 -64c-40,29 -95,43 -165,43 -69,0 -128,-20 -177,-59 -50,-39 -74,-86 -74,-140l0 -350 -84 0 0 -71 1352 0 0 71zm-852 398l0 -398 -191 0 0 398c0,27 9,49 28,64 18,15 41,23 68,23 26,0 49,-8 67,-23 19,-15 28,-37 28,-64zm1316 -398l-180 0 0 555c0,48 29,72 87,72l0 43 -399 0 0 -43c58,0 87,-24 87,-72l0 -555 -125 0 0 -71 530 0 0 71zm-172 -85l-208 0c-32,0 -67,-15 -104,-43l-243 -186c-25,-19 -65,-28 -121,-28l-70 0 0 -57 243 0c43,0 83,14 122,42l251 186c39,28 71,43 96,43l34 0 0 43zm993 85l-158 0 0 157 -191 0c-72,0 -133,21 -184,62 -51,42 -76,92 -76,152 0,59 25,110 76,151 51,42 112,63 184,63 87,0 168,-15 243,-43l26 36c-93,61 -200,92 -321,92 -119,0 -221,-28 -306,-83 -85,-56 -127,-124 -127,-202 0,-78 37,-146 111,-201 75,-56 165,-84 270,-84l70 0 0 -100 -504 0 0 -71 887 0 0 71zm-142 -100l-208 0c-33,0 -68,-14 -105,-43l-242 -185c-25,-19 -66,-29 -122,-29l-69 0 0 -57 243 0c42,0 82,15 121,43l252 186c39,28 70,42 95,42l35 0 0 43zm1606 100l-680 0 0 100c60,-29 135,-43 225,-43 97,0 179,26 246,77 68,51 101,113 101,187 0,74 -33,136 -101,187 -67,51 -149,77 -246,77 -58,0 -116,-17 -173,-50l17 -50c23,9 40,14 53,14 63,0 116,-18 159,-54 44,-36 66,-80 66,-131 0,-52 -22,-96 -66,-132 -43,-36 -96,-54 -159,-54 -42,0 -83,10 -122,29l0 413c0,16 9,29 26,40 17,12 38,17 61,17l0 43 -399 0 0 -43c23,0 43,-5 61,-16 17,-10 26,-24 26,-41l0 -57c-71,48 -146,72 -226,72 -95,0 -177,-26 -245,-78 -68,-51 -102,-113 -102,-186 0,-73 34,-135 102,-187 68,-51 150,-77 245,-77 91,0 166,14 226,43l0 -100 -625 0 0 -71 1530 0 0 71zm-905 471l0 -314c-40,-19 -80,-29 -122,-29 -62,0 -116,18 -159,54 -45,36 -66,80 -66,132 0,51 21,95 66,131 43,36 97,54 159,54 42,0 82,-9 122,-28zm1727 -471l-180 0 0 555c0,48 29,72 87,72l0 43 -400 0 0 -43c58,0 87,-24 87,-72l0 -555 -125 0 0 -71 531 0 0 71zm642 -85l-225 0c-35,-79 -89,-141 -165,-187 -76,-47 -160,-70 -252,-70 -64,0 -119,15 -165,46 -46,31 -69,68 -69,111 0,33 17,66 52,100l-226 0c-34,-34 -51,-67 -51,-100 0,-66 49,-118 147,-156 98,-39 205,-58 321,-58 149,0 281,28 397,85 115,57 194,133 236,229zm553 85l-180 0 0 570c0,16 9,29 26,40 17,12 38,17 61,17l0 43 -399 0 0 -43c23,0 43,-5 60,-16 18,-10 26,-24 26,-41l0 -399c-49,0 -90,17 -124,52 -33,35 -49,75 -49,119l-52 0c0,-48 -17,-88 -51,-121 -34,-33 -74,-50 -123,-50 -49,0 -91,19 -123,56 -34,37 -50,85 -50,144 0,58 18,107 56,149 37,41 85,62 143,62 44,0 88,-16 131,-47l34 35c-33,32 -72,56 -118,74 -46,18 -93,26 -142,26 -90,0 -168,-29 -232,-88 -65,-59 -98,-130 -98,-211 0,-79 32,-146 96,-202 64,-56 142,-83 234,-83 59,0 112,10 159,32 47,22 84,56 110,103l9 -1c38,-71 102,-106 190,-106l0 -114 -855 0 0 -71 1261 0 0 71zm465 0l-180 0 0 555c0,48 29,72 87,72l0 43 -400 0 0 -43c58,0 87,-24 87,-72l0 -555 -125 0 0 -71 531 0 0 71zm642 -85l-225 0c-35,-79 -89,-141 -165,-187 -76,-47 -160,-70 -252,-70 -64,0 -119,15 -165,46 -46,31 -69,68 -69,111 0,33 17,66 52,100l-226 0c-34,-34 -51,-67 -51,-100 0,-66 49,-118 147,-156 98,-39 205,-58 321,-58 149,0 281,28 397,85 115,57 194,133 236,229zm468 85l-180 0 0 570c0,16 9,29 26,40 17,12 38,17 61,17l0 43 -399 0 0 -43c23,0 43,-5 60,-16 18,-10 26,-24 26,-41l0 -213 -173 0 0 128c0,54 -28,98 -84,133 -55,35 -120,52 -193,52 -77,0 -142,-18 -197,-54 -54,-36 -81,-83 -81,-140 0,-54 26,-99 78,-136 53,-36 119,-55 200,-55l51 0 0 -285 -371 0 0 -71 1176 0 0 71zm-406 285l0 -285 -173 0 0 285 173 0zm-399 200l0 -128 -33 0c-47,0 -71,42 -71,128 0,85 18,128 53,128 34,0 51,-43 51,-128zm1626 -485l-158 0 0 157 -191 0c-72,0 -134,21 -184,62 -51,42 -76,92 -76,152 0,59 25,110 76,151 50,42 112,63 184,63 87,0 168,-15 243,-43l26 36c-93,61 -200,92 -321,92 -119,0 -222,-28 -307,-83 -84,-56 -127,-124 -127,-202 0,-78 38,-146 112,-201 74,-56 164,-84 270,-84l70 0 0 -100 -504 0 0 -71 887 0 0 71zm-142 -100l-209 0c-32,0 -67,-14 -104,-43l-243 -185c-24,-19 -65,-29 -121,-29l-69 0 0 -57 243 0c42,0 82,15 121,43l252 186c38,28 70,42 95,42l35 0 0 43zm1072 100l-190 0 0 157 -277 0c-30,0 -54,7 -74,21 -20,14 -30,31 -30,50 0,16 12,29 37,40 24,12 53,17 84,17l139 0c57,0 106,15 147,45 41,30 61,67 61,112 0,68 -40,122 -119,165 -80,42 -170,63 -271,63 -108,0 -206,-31 -295,-94 -89,-63 -150,-143 -182,-241l60 -21c26,79 74,144 143,194 69,51 146,77 230,77 57,0 106,-13 147,-38 41,-25 62,-55 62,-91 0,-32 -17,-59 -50,-81 -33,-22 -75,-33 -124,-33l-104 0c-53,0 -97,-12 -135,-38 -37,-25 -56,-55 -56,-90 0,-32 24,-59 70,-81 47,-22 104,-33 173,-33l139 0 0 -100 -581 0 0 -71 996 0 0 71z"/>
   <path class="fil1 str0" d="M722 156l2077 0c326,0 593,224 593,497l0 1742c0,273 -267,497 -593,497l-2077 0c-327,0 -594,-224 -594,-497l0 -1742c0,-273 267,-497 594,-497z"/>
   <path class="fil2" d="M1760 403c199,0 360,134 360,299 0,165 -161,299 -360,299 -198,0 -359,-134 -359,-299 0,-165 161,-299 359,-299zm-53 1101l106 0 0 -182c0,-37 8,-74 23,-113 24,-50 59,-94 105,-131 83,-65 208,-98 375,-98 56,0 112,11 168,32l-8 286 -28 -8 -71 -17c-12,0 -23,0 -33,0 -9,0 -15,0 -18,0 -87,0 -130,40 -130,121l0 110 275 0 -10 227 -237 0 0 572 0 51c0,36 10,61 29,77 20,16 57,26 111,32l23 0 -8 182 -521 0 -195 0 -522 0 -7 -182 23 0c53,-6 90,-16 110,-32 20,-16 30,-41 30,-77l0 -51 0 -572 -237 0 -11 -227 276 0 0 -110c0,-81 -44,-121 -130,-121 -4,0 -10,0 -18,0 -10,0 -21,0 -33,0l-72 17 -28 8 -7 -286c56,-21 112,-32 168,-32 167,0 291,33 375,98 46,37 80,81 104,131 16,39 23,76 23,113l0 182zm53 928c11,-9 20,-19 27,-31 11,-17 19,-44 26,-80l0 -34 0 -556 -106 0 0 556 0 34c7,36 16,63 26,80 7,12 16,22 27,31z"/>
  </g>
 </g>
</svg>
