<?xml version="1.0" encoding="UTF-8"?>
<!DOCTYPE svg PUBLIC "-//W3C//DTD SVG 1.1//EN" "http://www.w3.org/Graphics/SVG/1.1/DTD/svg11.dtd">
<!-- Creator: CorelDRAW X7 -->
<svg xmlns="http://www.w3.org/2000/svg" xml:space="preserve" width="248.92mm" height="30.988mm" version="1.1" style="shape-rendering:geometricPrecision; text-rendering:geometricPrecision; image-rendering:optimizeQuality; fill-rule:evenodd; clip-rule:evenodd"
viewBox="0 0 24892 3099"
 xmlns:xlink="http://www.w3.org/1999/xlink">
 <defs>
  <style type="text/css">
   <![CDATA[
    .str0 {stroke:#009846;stroke-width:35.28}
    .fil1 {fill:#FEFEFE}
    .fil2 {fill:#009846}
    .fil0 {fill:#71421A;fill-rule:nonzero}
   ]]>
  </style>
 </defs>
 <g id="Layer_x0020_1">
  <metadata id="CorelCorpID_0Corel-Layer"/>
  <g id="_2462074762960">
   <path class="fil0" d="M4824 788l-227 0 0 625c0,55 36,82 109,82l0 48 -504 0 0 -48c73,0 110,-27 110,-82l0 -625 -158 0 0 -80 670 0 0 80zm-670 1967l0 -834 290 0 0 379 339 -379 341 0 -396 406 431 428 -365 0 -350 -375 0 375 -290 0zm1097 0l0 -834 296 0 0 834 -296 0zm579 -270c44,39 87,67 129,86 42,19 84,29 126,29 40,0 72,-9 97,-25 25,-16 38,-37 38,-62 0,-28 -11,-49 -33,-64 -22,-15 -71,-30 -147,-46 -106,-22 -180,-51 -224,-86 -43,-36 -65,-84 -65,-146 0,-80 34,-144 103,-195 69,-50 158,-75 268,-75 59,0 115,6 168,18 53,13 103,31 151,56l-92 164c-33,-22 -67,-39 -102,-50 -35,-11 -70,-17 -104,-17 -35,0 -64,7 -86,20 -22,13 -33,30 -33,50 0,21 10,38 29,50 19,13 57,25 112,36l13 3c120,25 198,53 236,83 25,20 45,45 58,73 13,29 20,61 20,96 0,88 -38,160 -113,213 -74,54 -174,81 -299,81 -75,0 -143,-10 -205,-30 -61,-19 -120,-50 -177,-93l132 -169zm1110 -42l291 0 -110 -275c-3,-8 -8,-22 -13,-41 -6,-18 -14,-42 -23,-71 -6,20 -13,40 -19,58 -6,19 -12,37 -19,54l-107 275zm-411 312l371 -834 367 0 371 834 -291 0 -55 -150 -416 0 -55 150 -292 0zm1495 -312l292 0 -110 -275c-3,-8 -8,-22 -14,-41 -6,-18 -13,-42 -22,-71 -7,20 -13,40 -19,58 -6,19 -12,37 -19,54l-108 275zm-410 312l371 -834 367 0 371 834 -291 0 -55 -150 -416 0 -55 150 -292 0zm1211 0l0 -834 283 0 406 429c8,8 20,26 38,52 18,27 38,58 59,95 -6,-35 -10,-66 -13,-93 -2,-27 -4,-51 -4,-71l0 -412 281 0 0 834 -281 0 -405 -431c-9,-9 -22,-26 -40,-53 -18,-26 -37,-57 -58,-93 6,35 10,66 13,93 2,27 4,51 4,72l0 412 -283 0zm1758 0l0 -834 296 0 0 834 -296 0zm532 0l0 -834 282 0 406 429c8,8 21,26 38,52 18,27 38,58 60,95 -6,-35 -11,-66 -13,-93 -3,-27 -4,-51 -4,-71l0 -412 281 0 0 834 -281 0 -406 -431c-9,-9 -22,-26 -39,-53 -18,-26 -38,-57 -59,-93 6,35 10,66 13,93 3,27 4,51 4,72l0 412 -282 0zm1280 0l0 -834 658 0 0 183 -373 0 0 144 351 0 0 179 -351 0 0 328 -285 0zm1919 -416c0,61 -14,117 -42,169 -28,53 -70,99 -124,141 -55,41 -117,72 -188,95 -70,22 -143,33 -219,33 -77,0 -150,-11 -220,-33 -71,-23 -132,-54 -185,-95 -56,-42 -98,-89 -126,-142 -29,-52 -43,-108 -43,-168 0,-59 14,-115 43,-168 28,-52 70,-100 126,-141 53,-41 114,-72 185,-95 70,-22 143,-33 220,-33 76,0 150,11 220,33 71,23 133,54 187,95 54,41 95,88 124,141 28,53 42,109 42,168zm-573 245c81,0 148,-23 201,-69 53,-46 80,-105 80,-176 0,-69 -27,-128 -81,-175 -54,-46 -121,-70 -200,-70 -82,0 -149,24 -202,70 -53,47 -79,105 -79,175 0,72 26,131 78,176 52,47 120,69 203,69zm885 171l0 -637 -240 0 0 -197 774 0 0 197 -241 0 0 637 -293 0zm677 0l0 -834 658 0 0 183 -373 0 0 144 351 0 0 179 -351 0 0 141 373 0 0 187 -658 0zm1629 -802l0 249c-40,-35 -80,-60 -120,-76 -39,-16 -82,-25 -128,-25 -84,0 -152,23 -204,67 -52,45 -78,103 -78,175 0,67 27,122 80,166 53,44 120,66 202,66 46,0 89,-8 128,-24 40,-16 80,-41 120,-76l0 248c-46,18 -92,31 -138,40 -46,9 -93,13 -140,13 -58,0 -112,-6 -162,-16 -49,-11 -95,-28 -137,-50 -80,-42 -141,-94 -183,-157 -42,-64 -63,-135 -63,-215 0,-64 13,-121 40,-174 27,-52 67,-99 121,-142 50,-41 108,-71 172,-91 63,-20 134,-30 212,-30 47,0 94,4 140,13 46,8 92,22 138,39zm166 802l0 -834 293 0 0 324 390 0 0 -324 293 0 0 834 -293 0 0 -340 -390 0 0 340 -293 0zm1674 0l0 -834 293 0 0 639 364 0 0 195 -657 0zm807 0l0 -834 296 0 0 834 -296 0zm1764 0l-274 0 -63 -361c-4,-25 -8,-54 -12,-85 -3,-31 -7,-65 -10,-102 -7,36 -20,80 -40,132 -4,11 -8,19 -10,25l-145 391 -196 0 -145 -391c-2,-6 -5,-14 -9,-25 -21,-52 -34,-96 -41,-131 -3,31 -6,63 -10,94 -4,30 -9,61 -14,92l-63 361 -272 0 166 -834 289 0 162 430c1,3 3,8 6,15 15,38 25,71 29,98 2,-15 5,-31 11,-49 5,-18 13,-40 22,-65l163 -429 291 0 165 834zm165 0l0 -834 296 0 0 834 -296 0zm686 0l0 -637 -240 0 0 -197 774 0 0 197 -241 0 0 637 -293 0zm677 0l0 -834 658 0 0 183 -373 0 0 144 351 0 0 179 -351 0 0 141 373 0 0 187 -658 0zm851 0l0 -834 224 0c167,0 285,6 354,18 69,12 130,32 182,61 68,37 120,84 155,141 35,58 53,124 53,197 0,74 -18,139 -53,197 -35,58 -87,105 -155,142 -52,28 -111,48 -177,60 -67,12 -170,18 -310,18l-49 0 -224 0zm290 -187l49 0c115,0 199,-18 252,-55 53,-36 79,-95 79,-175 0,-79 -26,-138 -79,-175 -53,-37 -137,-56 -252,-56l-49 0 0 461zm-18377 -1876l-285 0c-43,-88 -112,-159 -208,-211 -96,-52 -202,-79 -318,-79 -81,0 -150,18 -208,52 -58,35 -87,76 -87,125 0,38 22,75 65,113l-285 0c-43,-38 -65,-75 -65,-113 0,-74 62,-132 186,-176 124,-43 259,-65 405,-65 189,0 356,32 501,97 146,64 246,149 299,257zm1038 96l-859 0 0 112c76,-32 171,-48 285,-48 122,0 225,29 311,86 84,58 127,128 127,211 0,83 -43,154 -127,211 -86,58 -189,86 -311,86 -74,0 -147,-18 -219,-56l22 -56c28,11 50,16 66,16 79,0 147,-20 202,-61 55,-41 82,-90 82,-148 0,-58 -27,-107 -82,-148 -55,-40 -123,-61 -202,-61 -53,0 -104,11 -154,33l0 466c0,17 11,32 33,44 22,13 47,20 77,20l0 48 -504 0 0 -48c29,0 55,-6 77,-18 22,-12 33,-28 33,-46l0 -65c-89,54 -184,80 -285,80 -121,0 -224,-29 -310,-86 -85,-59 -128,-129 -128,-211 0,-81 43,-152 128,-210 86,-58 189,-87 310,-87 115,0 209,16 285,48l0 -112 -789 0 0 -80 1932 0 0 80zm-1143 530l0 -353c-50,-22 -101,-33 -154,-33 -79,0 -146,21 -201,61 -56,41 -84,90 -84,148 0,58 28,107 84,148 55,41 122,61 201,61 53,0 104,-10 154,-32zm2731 -530l-228 0 0 643c0,17 11,32 33,44 22,13 47,20 77,20l0 48 -504 0 0 -48c29,0 55,-6 76,-18 22,-12 33,-28 33,-46l0 -217c-41,17 -85,25 -131,25 -62,0 -120,-11 -175,-33l21 -81c44,18 95,28 154,28 44,0 88,-10 131,-28l0 -337 -676 0c108,20 194,53 255,98 62,44 93,97 93,159 0,64 -36,118 -105,162 -71,44 -165,72 -283,85 40,36 82,66 126,92 45,26 81,38 108,38 58,0 102,-13 132,-40l65 32c-99,86 -201,129 -306,129 -98,0 -196,-43 -296,-129 -87,-75 -171,-123 -252,-144l24 -55c57,14 118,21 184,21 95,0 171,-19 230,-58 59,-39 88,-90 88,-154 0,-69 -35,-125 -105,-169 -70,-45 -155,-67 -255,-67l-186 0 0 -80 1672 0 0 80zm587 0l-228 0 0 625c0,55 37,82 109,82l0 48 -503 0 0 -48c73,0 109,-27 109,-82l0 -625 -158 0 0 -80 671 0 0 80zm1500 0l-228 0 0 643c0,17 11,32 33,44 22,13 47,20 77,20l0 48 -504 0 0 -48c29,0 55,-6 77,-18 21,-12 33,-28 33,-46l0 -306c-63,-37 -177,-67 -340,-88 52,22 93,51 122,86 28,36 42,74 42,115 0,75 -40,140 -121,193 -81,53 -179,80 -295,80 -115,0 -213,-27 -294,-81 -82,-54 -122,-118 -122,-192 0,-80 40,-148 121,-205 81,-56 179,-84 295,-84 231,0 428,34 592,104l0 -265 -1072 0 0 -80 1584 0 0 80zm-1104 225c-47,0 -88,21 -123,62 -35,41 -52,90 -52,147 0,61 17,114 52,158 35,44 76,66 123,66 49,0 90,-21 124,-64 34,-43 51,-96 51,-160 0,-59 -17,-109 -51,-149 -34,-40 -75,-60 -124,-60zm2587 -225l-289 0 0 167 -285 0c-50,0 -92,8 -125,23 -34,15 -50,36 -50,64 0,23 13,41 39,55 27,13 59,20 97,20 22,0 55,-1 98,-4 44,-2 75,-4 94,-4 158,0 237,43 237,129 0,63 -32,114 -95,151 -63,37 -150,56 -260,56l-96 0c26,23 63,44 110,64 47,20 86,31 117,31 33,0 68,-8 106,-23l32 32c-86,58 -174,87 -262,87 -98,0 -192,-34 -281,-101 -78,-60 -132,-101 -163,-123 -31,-22 -61,-35 -91,-38l0 -48 313 0c15,20 36,43 64,71 61,0 114,-11 159,-33 44,-21 67,-50 67,-86 0,-32 -17,-58 -50,-76 -33,-19 -74,-29 -126,-29l-175 0c-57,0 -108,-14 -152,-42 -45,-28 -67,-62 -67,-102 0,-41 22,-74 65,-100 43,-27 94,-40 154,-40l241 0 0 -101 -541 0 0 -80 1115 0 0 80zm-138 -378l-149 0c-40,0 -72,9 -98,26 -25,18 -38,41 -38,69 0,70 45,132 134,187l-285 0c-89,-55 -134,-117 -134,-187 0,-47 28,-86 84,-115 57,-29 135,-44 234,-44l252 0 0 64zm1157 378l-1102 0 0 -80 1102 0 0 80zm-33 337c-47,-29 -146,-53 -296,-72 80,34 120,96 120,185 0,75 -40,140 -121,193 -81,53 -179,80 -295,80 -114,0 -212,-27 -294,-81 -81,-54 -122,-118 -122,-192 0,-75 41,-139 122,-193 82,-53 180,-80 294,-80 241,0 438,32 592,96l0 64zm-592 -112c-47,0 -88,21 -123,62 -35,41 -52,90 -52,147 0,64 17,121 52,169 34,48 75,72 123,72 49,0 90,-23 124,-70 34,-46 52,-103 52,-171 0,-59 -18,-109 -52,-149 -34,-40 -75,-60 -124,-60zm2248 -225l-791 0 0 161c67,-43 155,-65 263,-65 110,0 203,27 279,80 77,54 115,118 115,193 0,81 -39,150 -116,206 -77,55 -169,83 -278,83 -81,0 -146,-15 -198,-48l0 -64c27,11 52,16 77,16 71,0 131,-17 180,-51 48,-34 72,-76 72,-126 0,-54 -24,-99 -72,-136 -49,-38 -109,-56 -180,-56 -60,0 -108,10 -142,32l0 418c0,17 11,32 33,44 22,13 47,20 77,20l0 48 -504 0 0 -48c29,0 54,-6 76,-18 22,-12 33,-28 33,-46l0 -73c-50,32 -119,48 -208,48 -87,0 -162,-22 -224,-66 -62,-44 -93,-97 -93,-158l0 -394 -106 0 0 -80 1707 0 0 80zm-1076 448l0 -448 -241 0 0 448c0,31 12,55 35,73 24,17 52,25 86,25 33,0 62,-8 85,-25 24,-18 35,-42 35,-73zm1663 -448l-228 0 0 625c0,55 37,82 109,82l0 48 -503 0 0 -48c73,0 109,-27 109,-82l0 -625 -158 0 0 -80 671 0 0 80zm-218 -96l-263 0c-41,0 -85,-16 -131,-49l-307 -208c-31,-22 -83,-33 -153,-33l-88 0 0 -64 307 0c53,0 104,16 153,48l318 209c49,32 89,48 120,48l44 0 0 49zm1254 96l-200 0 0 177 -241 0c-91,0 -169,23 -233,70 -63,47 -95,104 -95,171 0,67 32,123 95,170 64,47 142,70 233,70 110,0 212,-15 307,-48l33 40c-118,70 -253,105 -405,105 -151,0 -280,-32 -388,-94 -107,-63 -160,-139 -160,-227 0,-89 47,-164 141,-227 94,-63 207,-95 341,-95l88 0 0 -112 -636 0 0 -80 1120 0 0 80zm-180 -112l-263 0c-41,0 -85,-17 -131,-49l-307 -209c-31,-21 -83,-32 -153,-32l-88 0 0 -64 307 0c53,0 104,16 153,48l318 209c49,32 89,48 120,48l44 0 0 49zm2028 112l-858 0 0 112c75,-32 170,-48 284,-48 122,0 225,29 311,86 85,58 127,128 127,211 0,83 -42,154 -127,211 -86,58 -189,86 -311,86 -74,0 -146,-18 -219,-56l22 -56c28,11 51,16 66,16 79,0 147,-20 202,-61 55,-41 82,-90 82,-148 0,-58 -27,-107 -82,-148 -55,-40 -123,-61 -202,-61 -53,0 -104,11 -153,33l0 466c0,17 10,32 32,44 22,13 48,20 77,20l0 48 -504 0 0 -48c29,0 55,-6 77,-18 22,-12 33,-28 33,-46l0 -65c-89,54 -184,80 -285,80 -120,0 -224,-29 -310,-86 -85,-59 -128,-129 -128,-211 0,-81 43,-152 128,-210 86,-58 190,-87 310,-87 115,0 210,16 285,48l0 -112 -789 0 0 -80 1932 0 0 80zm-1143 530l0 -353c-50,-22 -101,-33 -154,-33 -78,0 -146,21 -201,61 -56,41 -83,90 -83,148 0,58 27,107 83,148 55,41 123,61 201,61 53,0 104,-10 154,-32zm2181 -530l-228 0 0 625c0,55 37,82 110,82l0 48 -504 0 0 -48c73,0 109,-27 109,-82l0 -625 -157 0 0 -80 670 0 0 80zm810 -96l-284 0c-43,-88 -113,-159 -208,-211 -96,-52 -202,-79 -318,-79 -81,0 -150,18 -209,52 -58,35 -87,76 -87,125 0,38 22,75 66,113l-285 0c-44,-38 -65,-75 -65,-113 0,-74 62,-132 186,-176 124,-43 259,-65 405,-65 189,0 355,32 501,97 146,64 245,149 298,257zm699 96l-228 0 0 643c0,17 11,32 33,44 22,13 48,20 77,20l0 48 -504 0 0 -48c29,0 55,-6 77,-18 22,-12 33,-28 33,-46l0 -450c-63,0 -115,19 -157,58 -42,40 -63,84 -63,134l-65 0c0,-54 -22,-99 -64,-136 -43,-38 -94,-56 -155,-56 -63,0 -115,21 -157,63 -42,42 -62,96 -62,162 0,65 23,121 70,168 47,46 108,69 182,69 55,0 110,-17 164,-53l44 41c-42,35 -92,62 -150,82 -58,20 -118,30 -179,30 -114,0 -211,-33 -293,-100 -82,-66 -123,-145 -123,-237 0,-89 40,-164 121,-227 81,-63 179,-95 295,-95 75,0 142,12 201,37 60,24 106,63 139,116l11 -2c48,-79 129,-119 241,-119l0 -128 -1080 0 0 -80 1592 0 0 80zm587 0l-228 0 0 625c0,55 37,82 110,82l0 48 -504 0 0 -48c73,0 109,-27 109,-82l0 -625 -157 0 0 -80 670 0 0 80zm810 -96l-284 0c-44,-88 -113,-159 -208,-211 -96,-52 -202,-79 -318,-79 -81,0 -150,18 -209,52 -58,35 -87,76 -87,125 0,38 22,75 66,113l-285 0c-44,-38 -65,-75 -65,-113 0,-74 62,-132 186,-176 124,-43 259,-65 405,-65 189,0 355,32 501,97 146,64 245,149 298,257zm592 96l-228 0 0 643c0,17 11,32 33,44 22,13 47,20 77,20l0 48 -504 0 0 -48c29,0 55,-6 76,-18 22,-12 33,-28 33,-46l0 -241 -219 0 0 144c0,61 -35,111 -106,150 -70,39 -151,59 -244,59 -97,0 -179,-20 -248,-61 -68,-41 -103,-93 -103,-158 0,-61 33,-112 99,-153 66,-41 150,-62 252,-62l65 0 0 -321 -468 0 0 -80 1485 0 0 80zm-513 321l0 -321 -219 0 0 321 219 0zm-504 225l0 -144 -41 0c-60,0 -90,48 -90,144 0,97 22,145 66,145 44,0 65,-48 65,-145zm2053 -546l-200 0 0 177 -240 0c-92,0 -169,23 -233,70 -64,47 -96,104 -96,171 0,67 32,123 96,170 64,47 141,70 233,70 109,0 211,-15 306,-48l33 40c-117,70 -253,105 -405,105 -151,0 -280,-32 -388,-94 -106,-63 -160,-139 -160,-227 0,-89 47,-164 141,-227 94,-63 208,-95 341,-95l88 0 0 -112 -636 0 0 -80 1120 0 0 80zm-180 -112l-263 0c-40,0 -85,-17 -131,-49l-307 -209c-31,-21 -82,-32 -153,-32l-88 0 0 -64 307 0c53,0 104,16 153,48l318 209c49,32 89,48 120,48l44 0 0 49zm1354 112l-239 0 0 177 -350 0c-38,0 -69,7 -94,23 -25,16 -38,35 -38,57 0,18 15,33 46,45 31,13 67,19 107,19l176 0c72,0 134,17 185,51 52,34 77,76 77,126 0,76 -50,138 -151,185 -101,48 -214,72 -341,72 -136,0 -261,-35 -373,-106 -112,-71 -189,-161 -230,-272l77 -24c33,89 93,162 180,220 87,57 184,85 291,85 71,0 133,-14 185,-42 52,-28 77,-62 77,-102 0,-37 -20,-67 -62,-92 -42,-24 -95,-37 -157,-37l-131 0c-66,0 -123,-14 -170,-42 -47,-29 -71,-63 -71,-102 0,-36 30,-66 88,-91 59,-25 132,-38 219,-38l175 0 0 -112 -734 0 0 -80 1258 0 0 80z"/>
   <rect class="fil1 str0" x="202" y="25" width="3556" height="3048" rx="292" ry="283"/>
   <path class="fil2" d="M1980 286c251,0 454,151 454,337 0,186 -203,337 -454,337 -250,0 -453,-151 -453,-337 0,-186 203,-337 453,-337zm-67 1241l134 0 0 -205c0,-42 10,-84 29,-127 30,-57 74,-107 132,-148 105,-73 263,-110 473,-110 71,0 142,12 213,36l-10 322 -35 -9 -90 -19c-15,0 -29,0 -42,0 -11,0 -18,0 -23,0 -109,0 -164,45 -164,136l0 124 348 0 -13 256 -299 0 0 644 0 58c0,40 12,69 37,86 25,18 71,30 139,36l30 0 -10 205 -659 0 -246 0 -658 0 -10 -205 30 0c67,-6 113,-18 139,-36 25,-17 37,-46 37,-86l0 -58 0 -644 -299 0 -13 -256 348 0 0 -124c0,-91 -55,-136 -165,-136 -4,0 -11,0 -22,0 -13,0 -27,0 -42,0l-90 19 -36 9 -9 -322c71,-24 141,-36 212,-36 211,0 368,37 473,110 58,41 102,91 132,148 20,43 29,85 29,127l0 205zm67 1045c14,-10 25,-21 35,-34 12,-19 24,-50 32,-91l0 -38 0 -626 -134 0 0 626 0 38c9,41 20,72 33,91 9,13 21,24 34,34z"/>
  </g>
 </g>
</svg>
