<?xml version="1.0" encoding="UTF-8"?>
<!DOCTYPE svg PUBLIC "-//W3C//DTD SVG 1.1//EN" "http://www.w3.org/Graphics/SVG/1.1/DTD/svg11.dtd">
<!-- Creator: CorelDRAW X7 -->
<svg xmlns="http://www.w3.org/2000/svg" xml:space="preserve" width="90mm" height="25mm" version="1.1" style="shape-rendering:geometricPrecision; text-rendering:geometricPrecision; image-rendering:optimizeQuality; fill-rule:evenodd; clip-rule:evenodd"
viewBox="0 0 90000 25000"
 xmlns:xlink="http://www.w3.org/1999/xlink">
 <defs>
  <style type="text/css">
   <![CDATA[
    .str1 {stroke:#064326;stroke-width:493.8}
    .str0 {stroke:#2B2A29;stroke-width:200}
    .fil3 {fill:none}
    .fil0 {fill:#064326}
    .fil1 {fill:#FEFEFE;fill-rule:nonzero}
    .fil2 {fill:#71421A;fill-rule:nonzero}
   ]]>
  </style>
 </defs>
 <g id="Layer_x0020_1">
  <metadata id="CorelCorpID_0Corel-Layer"/>
  <g id="_2172383472192">
   <g>
    <rect class="fil0 str0" x="5000" y="16758" width="80000" height="5302" rx="2867" ry="795"/>
    <path class="fil1" d="M19734 19744l516 154c-80,281 -211,491 -396,628 -184,136 -417,204 -699,204 -351,0 -638,-116 -864,-348 -225,-232 -338,-550 -338,-953 0,-425 113,-756 340,-992 226,-236 524,-354 893,-354 323,0 585,93 786,278 121,110 210,267 270,472l-526 122c-31,-132 -96,-237 -195,-314 -100,-77 -220,-115 -361,-115 -196,0 -355,68 -476,204 -122,136 -183,356 -183,661 0,323 60,553 180,690 120,138 276,206 468,206 142,0 264,-43 366,-131 101,-87 175,-224 219,-412zm954 943l0 -2557 534 0 0 2557 -534 0zm1041 0l0 -2557 517 0 1084 1714 0 -1714 493 0 0 2557 -533 0 -1068 -1681 0 1681 -493 0zm2750 -1364l0 -490 504 0 0 490 -504 0zm0 1364l0 -489 504 0 0 489 -504 0zm2157 -2557l533 0 0 1386c0,220 7,362 20,427 23,105 76,189 161,253 85,63 201,95 348,95 149,0 262,-30 338,-90 76,-60 122,-133 137,-221 15,-87 23,-232 23,-435l0 -1415 534 0 0 1345c0,307 -14,524 -43,651 -29,127 -82,234 -159,322 -76,87 -180,156 -308,208 -130,52 -298,78 -506,78 -251,0 -441,-28 -570,-85 -130,-56 -232,-129 -308,-220 -75,-90 -124,-185 -148,-284 -35,-146 -52,-363 -52,-650l0 -1365zm2544 485l0 -453 1730 0 0 357c-143,136 -288,332 -436,586 -147,255 -260,526 -337,813 -78,287 -116,544 -115,769l-485 0c8,-354 83,-715 225,-1084 142,-368 331,-698 568,-988l-1150 0zm3037 2072l0 -514 -1075 0 0 -427 1140 -1627 424 0 0 1625 328 0 0 429 -328 0 0 514 -489 0zm0 -943l0 -873 -603 873 603 0zm1075 349l490 -52c11,97 43,169 92,215 50,47 116,71 198,71 104,0 191,-47 264,-141 72,-93 118,-287 138,-581 -127,143 -285,214 -476,214 -206,0 -385,-77 -536,-232 -150,-156 -225,-358 -225,-607 0,-259 79,-468 238,-627 159,-159 361,-238 607,-238 267,0 486,101 657,302 172,201 257,531 257,992 0,468 -88,806 -266,1013 -178,208 -410,312 -696,312 -206,0 -371,-54 -498,-161 -127,-106 -208,-267 -244,-480zm1138 -1073c0,-158 -38,-280 -113,-367 -74,-87 -160,-130 -259,-130 -93,0 -170,35 -231,107 -62,71 -93,188 -93,350 0,165 34,286 101,363 66,77 150,115 250,115 97,0 179,-36 245,-111 67,-74 100,-183 100,-327zm909 1073l490 -52c12,97 43,169 93,215 49,47 115,71 197,71 104,0 191,-47 264,-141 72,-93 118,-287 138,-581 -126,143 -285,214 -475,214 -207,0 -386,-77 -537,-232 -150,-156 -225,-358 -225,-607 0,-259 79,-468 238,-627 159,-159 362,-238 607,-238 267,0 486,101 657,302 171,201 257,531 257,992 0,468 -88,806 -266,1013 -178,208 -410,312 -696,312 -205,0 -371,-54 -498,-161 -126,-106 -208,-267 -244,-480zm1138 -1073c0,-158 -38,-280 -113,-367 -74,-87 -160,-130 -258,-130 -94,0 -171,35 -232,107 -62,71 -93,188 -93,350 0,165 34,286 101,363 67,77 150,115 251,115 97,0 178,-36 244,-111 67,-74 100,-183 100,-327zm909 1073l490 -52c11,97 43,169 93,215 49,47 115,71 197,71 104,0 191,-47 264,-141 72,-93 118,-287 138,-581 -126,143 -285,214 -475,214 -207,0 -386,-77 -537,-232 -150,-156 -225,-358 -225,-607 0,-259 79,-468 238,-627 159,-159 362,-238 607,-238 267,0 486,101 658,302 171,201 257,531 257,992 0,468 -89,806 -267,1013 -178,208 -410,312 -696,312 -205,0 -371,-54 -498,-161 -126,-106 -208,-267 -244,-480zm1138 -1073c0,-158 -38,-280 -113,-367 -74,-87 -160,-130 -258,-130 -94,0 -171,35 -232,107 -62,71 -93,188 -93,350 0,165 34,286 101,363 67,77 150,115 251,115 97,0 178,-36 244,-111 67,-74 100,-183 100,-327zm1005 1667l0 -2557 853 0c324,0 534,12 632,38 151,38 278,122 379,250 102,129 153,295 153,499 0,157 -29,288 -87,396 -59,107 -134,191 -224,252 -90,61 -182,101 -275,121 -127,24 -311,37 -551,37l-346 0 0 964 -534 0zm534 -2125l0 729 290 0c209,0 348,-14 419,-41 71,-27 126,-68 166,-126 40,-57 60,-123 60,-199 0,-94 -28,-171 -84,-232 -57,-60 -127,-98 -214,-114 -63,-11 -190,-17 -381,-17l-256 0zm1921 2125l0 -2557 517 0 1084 1714 0 -1714 494 0 0 2557 -533 0 -1069 -1681 0 1681 -493 0zm4252 -453l0 453 -1770 0c19,-172 76,-335 172,-490 96,-154 285,-359 567,-614 228,-206 367,-346 419,-419 69,-101 104,-201 104,-301 0,-110 -30,-193 -91,-252 -60,-59 -143,-88 -249,-88 -106,0 -189,31 -252,92 -62,62 -97,164 -107,308l-504 -49c30,-270 123,-465 282,-582 158,-118 355,-177 593,-177 260,0 464,69 613,205 149,136 223,306 223,509 0,116 -21,225 -64,330 -42,104 -110,213 -202,327 -61,77 -172,186 -331,328 -160,142 -262,236 -304,283 -43,47 -77,93 -104,137l1005 0zm1195 -2119c255,0 455,89 599,266 171,210 257,558 257,1044 0,485 -87,834 -259,1046 -143,175 -342,263 -597,263 -256,0 -463,-96 -620,-288 -157,-191 -236,-534 -236,-1026 0,-482 87,-830 259,-1042 143,-175 342,-263 597,-263zm0 408c-60,0 -114,19 -161,57 -47,37 -84,105 -109,203 -35,127 -52,341 -52,642 0,301 15,508 46,621 31,112 69,187 116,225 47,37 100,56 160,56 60,0 114,-19 161,-58 47,-37 84,-105 110,-203 34,-126 51,-340 51,-641 0,-301 -15,-507 -46,-620 -31,-112 -69,-188 -116,-225 -46,-38 -100,-57 -160,-57zm2483 2164l-504 0 0 -1851c-184,168 -401,292 -651,372l0 -446c132,-42 274,-121 428,-238 155,-117 261,-253 318,-409l409 0 0 2572zm1746 0l0 -514 -1075 0 0 -427 1140 -1627 424 0 0 1625 328 0 0 429 -328 0 0 514 -489 0zm0 -943l0 -873 -603 873 603 0zm1171 943l0 -2557 853 0c323,0 534,12 632,38 151,38 277,122 379,250 102,129 153,295 153,499 0,157 -30,288 -88,396 -59,107 -133,191 -223,252 -91,61 -183,101 -276,121 -127,24 -310,37 -551,37l-346 0 0 964 -533 0zm533 -2125l0 729 290 0c210,0 349,-14 419,-41 71,-27 126,-68 166,-126 40,-57 60,-123 60,-199 0,-94 -28,-171 -84,-232 -56,-60 -127,-98 -213,-114 -63,-11 -190,-17 -382,-17l-256 0zm1936 2125l0 -2536 534 0 0 2104 1322 0 0 432 -1856 0zm3920 -943l515 154c-79,281 -211,491 -395,628 -184,136 -417,204 -700,204 -350,0 -638,-116 -864,-348 -225,-232 -338,-550 -338,-953 0,-425 114,-756 340,-992 226,-236 525,-354 894,-354 323,0 585,93 786,278 120,110 210,267 270,472l-527 122c-31,-132 -96,-237 -195,-314 -99,-77 -219,-115 -360,-115 -196,0 -355,68 -476,204 -123,136 -183,356 -183,661 0,323 60,553 179,690 121,138 276,206 469,206 141,0 263,-43 365,-131 102,-87 176,-224 220,-412zm2150 943l-504 0 0 -1851c-184,168 -402,292 -652,372l0 -446c132,-42 275,-121 429,-238 155,-117 260,-253 318,-409l409 0 0 2572zm762 -656l505 -51c14,111 57,199 127,264 71,65 153,97 246,97 105,0 195,-42 268,-126 73,-84 110,-210 110,-378 0,-159 -37,-277 -110,-356 -72,-80 -167,-119 -283,-119 -145,0 -276,62 -391,186l-409 -57 258 -1329 1336 0 0 457 -953 0 -80 435c113,-54 228,-81 346,-81 224,0 414,79 570,238 157,158 235,364 235,618 0,211 -64,399 -189,565 -172,227 -410,340 -714,340 -244,0 -443,-64 -596,-191 -154,-127 -246,-297 -276,-512zm2896 -1916c255,0 455,89 599,266 171,210 257,558 257,1044 0,485 -87,834 -259,1046 -143,175 -342,263 -597,263 -256,0 -463,-96 -620,-288 -157,-191 -236,-534 -236,-1026 0,-482 87,-830 259,-1042 143,-175 342,-263 597,-263zm0 408c-60,0 -114,19 -161,57 -47,37 -84,105 -110,203 -34,127 -51,341 -51,642 0,301 15,508 46,621 31,112 69,187 116,225 47,37 100,56 160,56 60,0 114,-19 161,-58 47,-37 84,-105 110,-203 34,-126 51,-340 51,-641 0,-301 -15,-507 -46,-620 -31,-112 -69,-188 -116,-225 -47,-38 -100,-57 -160,-57zm1191 92l0 -453 1730 0 0 357c-143,136 -287,332 -435,586 -148,255 -260,526 -338,813 -77,287 -115,544 -114,769l-486 0c9,-354 84,-715 225,-1084 143,-368 332,-698 569,-988l-1151 0zm2047 0l0 -453 1730 0 0 357c-143,136 -287,332 -435,586 -148,255 -260,526 -338,813 -77,287 -115,544 -114,769l-486 0c9,-354 84,-715 225,-1084 143,-368 332,-698 569,-988l-1151 0zm2033 1394l489 -57c16,121 57,214 125,278 68,64 151,97 247,97 104,0 191,-39 262,-116 70,-77 106,-180 106,-311 0,-124 -34,-222 -102,-294 -68,-72 -151,-108 -249,-108 -64,0 -141,12 -230,37l55 -398c137,4 240,-26 312,-87 72,-61 107,-142 107,-244 0,-86 -26,-155 -79,-207 -53,-51 -123,-76 -210,-76 -87,0 -160,29 -221,87 -61,58 -98,143 -112,256l-464 -77c33,-156 82,-281 147,-374 65,-93 157,-166 273,-220 117,-53 248,-80 393,-80 248,0 446,77 596,231 123,127 185,269 185,428 0,225 -126,406 -379,540 150,31 271,102 361,211 91,110 136,242 136,397 0,224 -85,416 -253,574 -169,159 -379,238 -630,238 -238,0 -436,-67 -592,-201 -157,-133 -248,-308 -273,-524z"/>
   </g>
   <path class="fil2" d="M21460 6059l-729 0 0 2498c0,220 118,328 351,328l0 193 -1612 0 0 -193c234,0 350,-108 350,-328l0 -2498 -504 0 0 -321 2144 0 0 321zm-2144 7864l0 -3335 927 0 0 1515 1086 -1515 1091 0 -1269 1626 1379 1709 -1168 0 -1119 -1496 0 1496 -927 0zm3508 0l0 -3335 947 0 0 3335 -947 0zm1854 -1077c139,153 276,267 411,343 136,76 270,114 405,114 125,0 228,-33 308,-98 81,-65 121,-148 121,-248 0,-111 -34,-196 -104,-256 -70,-60 -227,-122 -472,-186 -336,-88 -575,-203 -714,-343 -140,-142 -209,-335 -209,-581 0,-320 110,-579 330,-781 219,-201 505,-301 855,-301 190,0 369,24 539,73 170,50 331,125 483,225l-294 653c-106,-88 -215,-154 -328,-199 -111,-44 -221,-67 -331,-67 -112,0 -204,27 -274,79 -70,52 -106,120 -106,201 0,83 31,150 92,201 62,50 181,98 358,143l42 11c382,101 633,210 754,331 81,82 143,180 186,295 42,115 63,241 63,381 0,354 -120,639 -359,853 -240,216 -559,323 -958,323 -239,0 -457,-40 -654,-118 -196,-80 -385,-203 -566,-372l422 -676zm3548 -168l931 0 -350 -1101c-10,-34 -26,-87 -44,-162 -19,-75 -43,-170 -73,-287 -20,82 -40,160 -60,235 -19,74 -39,145 -59,214l-345 1101zm-1313 1245l1186 -3335 1173 0 1187 3335 -931 0 -174 -597 -1330 0 -179 597 -932 0zm4783 -1245l931 0 -350 -1101c-10,-34 -25,-87 -44,-162 -19,-75 -43,-170 -73,-287 -20,82 -40,160 -60,235 -19,74 -39,145 -59,214l-345 1101zm-1313 1245l1186 -3335 1174 0 1186 3335 -931 0 -174 -597 -1330 0 -179 597 -932 0zm3874 0l0 -3335 903 0 1300 1715c24,35 65,106 122,212 58,104 120,230 189,376 -18,-138 -32,-261 -41,-369 -9,-108 -13,-203 -13,-287l0 -1647 899 0 0 3335 -899 0 -1298 -1722c-27,-35 -69,-106 -126,-211 -57,-105 -119,-230 -186,-373 18,140 32,264 41,372 8,108 12,204 12,287l0 1647 -903 0zm5622 0l0 -3335 947 0 0 3335 -947 0zm1701 0l0 -3335 903 0 1299 1715c25,35 66,106 122,212 58,104 121,230 189,376 -18,-138 -32,-261 -40,-369 -9,-108 -13,-203 -13,-287l0 -1647 898 0 0 3335 -898 0 -1298 -1722c-28,-35 -69,-106 -126,-211 -58,-105 -120,-230 -187,-373 19,140 32,264 41,372 9,108 13,204 13,287l0 1647 -903 0zm4094 0l0 -3335 2104 0 0 732 -1191 0 0 579 1123 0 0 713 -1123 0 0 1311 -913 0zm6141 -1660c0,240 -46,464 -136,674 -91,210 -223,397 -397,562 -175,165 -375,290 -600,380 -226,89 -459,133 -701,133 -246,0 -482,-44 -706,-133 -224,-90 -421,-215 -592,-380 -177,-165 -310,-353 -403,-565 -91,-210 -136,-434 -136,-671 0,-239 45,-463 136,-674 93,-210 226,-398 403,-563 171,-165 368,-290 592,-380 224,-88 460,-133 706,-133 243,0 479,45 705,133 225,90 424,215 596,380 172,164 304,351 396,563 91,210 137,435 137,674zm-1836 979c260,0 474,-92 644,-277 170,-186 255,-420 255,-702 0,-280 -86,-513 -258,-700 -172,-187 -386,-280 -641,-280 -259,0 -474,93 -644,279 -170,186 -254,420 -254,701 0,285 83,520 250,703 168,184 384,276 648,276zm2833 681l0 -2547 -769 0 0 -788 2475 0 0 788 -769 0 0 2547 -937 0zm2163 0l0 -3335 2105 0 0 732 -1192 0 0 579 1124 0 0 713 -1124 0 0 565 1192 0 0 746 -2105 0zm5213 -3204l0 993c-128,-138 -256,-239 -384,-304 -127,-64 -264,-97 -409,-97 -269,0 -487,89 -654,267 -166,178 -249,411 -249,698 0,267 85,489 254,665 170,176 386,264 649,264 145,0 282,-32 409,-97 128,-63 256,-165 384,-304l0 993c-148,70 -296,123 -443,158 -147,35 -295,52 -446,52 -187,0 -360,-22 -519,-64 -159,-44 -304,-110 -437,-198 -257,-167 -452,-377 -587,-630 -134,-255 -201,-540 -201,-857 0,-255 42,-487 128,-696 85,-209 214,-398 385,-568 163,-163 346,-284 550,-365 204,-80 431,-120 681,-120 151,0 299,17 446,52 147,35 295,88 443,158zm529 3204l0 -3335 937 0 0 1297 1249 0 0 -1297 937 0 0 3335 -937 0 0 -1357 -1249 0 0 1357 -937 0zm5357 0l0 -3335 937 0 0 2556 1163 0 0 779 -2100 0zm2581 0l0 -3335 947 0 0 3335 -947 0zm5641 0l-876 0 -201 -1442c-14,-102 -27,-215 -39,-340 -11,-124 -23,-260 -31,-407 -23,141 -65,317 -129,529 -15,43 -25,76 -32,98l-466 1562 -624 0 -467 -1562c-6,-22 -16,-55 -28,-98 -66,-212 -108,-387 -129,-527 -9,126 -20,251 -33,375 -12,124 -27,247 -44,370l-202 1442 -871 0 531 -3335 926 0 518 1720c4,12 10,32 20,60 48,153 78,284 91,394 6,-60 18,-125 35,-198 17,-72 41,-159 71,-261l523 -1715 929 0 528 3335zm527 0l0 -3335 947 0 0 3335 -947 0zm2195 0l0 -2547 -768 0 0 -788 2474 0 0 788 -769 0 0 2547 -937 0zm2164 0l0 -3335 2104 0 0 732 -1191 0 0 579 1123 0 0 713 -1123 0 0 565 1191 0 0 746 -2104 0zm2723 0l0 -3335 716 0c534,0 911,24 1132,73 222,48 416,130 583,243 218,148 383,337 495,566 113,230 169,493 169,788 0,295 -56,556 -169,787 -112,230 -277,419 -495,566 -166,112 -355,193 -568,241 -212,47 -542,71 -989,71l-158 0 -716 0zm928 -746l157 0c367,0 637,-73 805,-220 170,-146 254,-379 254,-698 0,-319 -84,-552 -254,-702 -168,-148 -438,-223 -805,-223l-157 0 0 1843zm-58781 -7502l-910 0c-139,-352 -360,-633 -666,-842 -306,-210 -645,-315 -1016,-315 -259,0 -481,69 -668,207 -185,138 -278,305 -278,499 0,150 70,300 210,451l-911 0c-140,-151 -209,-301 -209,-451 0,-295 198,-529 595,-703 397,-173 829,-260 1296,-260 603,0 1136,129 1603,385 466,257 784,600 954,1029zm3320 384l-2745 0 0 450c240,-129 544,-193 910,-193 390,0 721,115 993,345 272,230 408,512 408,843 0,332 -136,614 -408,843 -272,230 -603,345 -993,345 -236,0 -469,-74 -701,-224l71 -225c91,43 161,64 210,64 255,0 470,-81 646,-244 177,-162 264,-360 264,-591 0,-233 -87,-430 -264,-592 -176,-162 -391,-243 -646,-243 -168,0 -332,43 -490,129l0 1863c0,68 35,128 104,179 70,52 152,77 246,77l0 193 -1612 0 0 -193c94,0 175,-24 246,-72 70,-48 105,-110 105,-184l0 -258c-285,215 -589,321 -911,321 -385,0 -715,-116 -990,-347 -274,-233 -412,-513 -412,-841 0,-327 138,-607 412,-840 275,-232 605,-348 990,-348 367,0 671,64 911,193l0 -450 -2523 0 0 -321 6179 0 0 321zm-3656 2120l0 -1413c-159,-86 -323,-129 -490,-129 -253,0 -468,81 -645,243 -178,162 -267,359 -267,592 0,231 89,429 267,591 177,163 392,244 645,244 167,0 331,-42 490,-128zm8735 -2120l-728 0 0 2570c0,68 35,128 105,179 70,52 152,77 245,77l0 193 -1611 0 0 -193c93,0 175,-24 245,-72 70,-48 105,-110 105,-184l0 -867c-130,68 -271,103 -421,103 -196,0 -382,-45 -560,-135l70 -321c141,72 304,108 490,108 144,0 283,-36 421,-108l0 -1350 -2164 0c348,81 620,212 818,391 197,178 295,391 295,637 0,257 -112,473 -336,648 -225,177 -526,290 -904,341 128,142 263,263 404,366 142,103 257,154 346,154 184,0 324,-53 421,-160l209 128c-317,343 -645,514 -981,514 -313,0 -627,-171 -945,-514 -278,-301 -547,-494 -806,-578l78 -218c179,55 375,83 588,83 301,0 545,-77 734,-233 188,-155 281,-359 281,-615 0,-274 -111,-500 -336,-677 -224,-178 -495,-267 -813,-267l-596 0 0 -321 5346 0 0 321zm1877 0l-728 0 0 2498c0,220 117,328 351,328l0 193 -1612 0 0 -193c234,0 350,-108 350,-328l0 -2498 -504 0 0 -321 2143 0 0 321zm4800 0l-730 0 0 2570c0,68 36,128 106,179 70,52 151,77 245,77l0 193 -1611 0 0 -193c93,0 175,-24 245,-72 70,-48 105,-110 105,-184l0 -1220c-200,-150 -563,-269 -1085,-354 167,87 298,202 388,345 91,142 137,295 137,458 0,301 -129,559 -388,772 -258,214 -572,320 -943,320 -367,0 -680,-108 -941,-324 -261,-214 -391,-471 -391,-768 0,-319 129,-592 387,-818 259,-225 573,-338 945,-338 738,0 1368,139 1891,417l0 -1060 -3426 0 0 -321 5066 0 0 321zm-3531 899c-152,0 -283,84 -395,248 -111,164 -166,360 -166,587 0,247 55,459 166,635 112,176 243,264 395,264 157,0 288,-85 397,-257 109,-174 163,-386 163,-642 0,-235 -54,-433 -163,-594 -109,-160 -240,-241 -397,-241zm8274 -899l-926 0 0 668 -909 0c-162,0 -296,31 -402,92 -107,61 -159,146 -159,255 0,92 42,166 125,221 85,53 188,81 309,81 73,0 178,-6 315,-16 140,-11 241,-16 302,-16 504,0 757,171 757,514 0,254 -102,456 -304,605 -202,149 -480,224 -832,224l-308 0c84,90 201,175 352,256 151,81 276,122 377,122 102,0 215,-30 336,-90l105 128c-278,232 -559,348 -841,348 -313,0 -612,-135 -896,-405 -250,-240 -425,-404 -524,-492 -99,-88 -195,-138 -290,-150l0 -193 1002 0c47,79 115,173 204,283 196,0 366,-44 508,-131 142,-86 214,-201 214,-345 0,-128 -53,-230 -158,-305 -105,-74 -239,-113 -403,-113l-561 0c-181,0 -344,-55 -486,-167 -142,-113 -214,-250 -214,-410 0,-162 69,-297 207,-401 137,-106 302,-158 493,-158l772 0 0 -405 -1732 0 0 -321 3567 0 0 321zm-443 -1509l-475 0c-127,0 -231,35 -312,104 -82,70 -124,161 -124,275 0,281 144,529 428,746l-911 0c-284,-217 -427,-465 -427,-746 0,-191 90,-344 270,-461 180,-116 429,-175 746,-175l805 0 0 257zm3701 1509l-3525 0 0 -321 3525 0 0 321zm-105 1350c-150,-117 -465,-213 -946,-290 257,137 385,383 385,739 0,301 -129,559 -387,772 -259,214 -573,320 -944,320 -367,0 -680,-108 -941,-324 -260,-214 -390,-471 -390,-768 0,-298 130,-555 390,-769 261,-215 574,-323 941,-323 770,0 1402,129 1892,385l0 258zm-1892 -451c-152,0 -283,84 -394,248 -111,164 -166,360 -166,587 0,259 55,485 164,677 111,192 242,287 396,287 155,0 286,-92 396,-277 110,-186 165,-415 165,-687 0,-235 -55,-433 -164,-594 -109,-160 -240,-241 -397,-241zm7189 -899l-2529 0 0 643c214,-171 495,-257 840,-257 353,0 651,106 895,319 244,214 367,470 367,773 0,323 -125,596 -371,820 -246,223 -543,335 -891,335 -257,0 -467,-63 -631,-192l0 -257c85,43 166,64 246,64 226,0 418,-67 573,-203 154,-136 232,-304 232,-504 0,-215 -78,-397 -232,-547 -155,-149 -347,-223 -573,-223 -195,0 -346,43 -455,128l0 1671c0,68 34,128 105,179 69,52 152,77 245,77l0 193 -1612 0 0 -193c94,0 175,-24 245,-72 71,-48 106,-110 106,-184l0 -290c-162,129 -383,193 -666,193 -278,0 -517,-89 -717,-265 -199,-177 -298,-388 -298,-634l0 -1574 -338 0 0 -321 5459 0 0 321zm-3440 1792l0 -1792 -772 0 0 1792c0,124 39,221 113,290 75,68 166,102 274,102 107,0 198,-34 272,-102 76,-69 113,-166 113,-290zm5317 -1792l-728 0 0 2498c0,220 117,328 350,328l0 193 -1612 0 0 -193c235,0 350,-108 350,-328l0 -2498 -504 0 0 -321 2144 0 0 321zm-696 -384l-841 0c-130,0 -271,-65 -421,-193l-980 -836c-100,-85 -264,-128 -490,-128l-280 0 0 -257 980 0c172,0 334,64 491,193l1016 835c157,128 285,193 385,193l140 0 0 193zm4010 384l-638 0 0 707 -770 0c-292,0 -541,93 -745,281 -205,187 -306,414 -306,683 0,267 101,494 306,682 204,187 453,280 745,280 350,0 676,-63 980,-192l105 160c-375,279 -808,418 -1296,418 -483,0 -895,-126 -1239,-377 -342,-252 -512,-555 -512,-908 0,-353 150,-655 450,-907 300,-251 664,-377 1091,-377l281 0 0 -450 -2033 0 0 -321 3581 0 0 321zm-575 -449l-841 0c-130,0 -271,-65 -420,-193l-981 -835c-100,-86 -264,-128 -490,-128l-280 0 0 -258 981 0c170,0 333,65 490,193l1016 835c157,128 285,193 385,193l140 0 0 193zm6486 449l-2745 0 0 450c240,-129 544,-193 910,-193 390,0 721,115 994,345 271,230 407,512 407,843 0,332 -136,614 -407,843 -273,230 -604,345 -994,345 -235,0 -469,-74 -701,-224l71 -225c91,43 161,64 210,64 255,0 470,-81 646,-244 177,-162 264,-360 264,-591 0,-233 -87,-430 -264,-592 -176,-162 -391,-243 -646,-243 -168,0 -332,43 -490,129l0 1863c0,68 35,128 104,179 71,52 152,77 246,77l0 193 -1611 0 0 -193c93,0 174,-24 245,-72 70,-48 105,-110 105,-184l0 -258c-284,215 -588,321 -911,321 -385,0 -715,-116 -990,-347 -274,-233 -411,-513 -411,-841 0,-327 137,-607 411,-840 275,-232 605,-348 990,-348 367,0 671,64 911,193l0 -450 -2523 0 0 -321 6179 0 0 321zm-3656 2120l0 -1413c-159,-86 -323,-129 -490,-129 -253,0 -468,81 -645,243 -178,162 -266,359 -266,592 0,231 88,429 266,591 177,163 392,244 645,244 167,0 331,-42 490,-128zm6977 -2120l-728 0 0 2498c0,220 117,328 350,328l0 193 -1612 0 0 -193c234,0 350,-108 350,-328l0 -2498 -504 0 0 -321 2144 0 0 321zm2592 -384l-910 0c-139,-352 -360,-633 -666,-842 -306,-210 -644,-315 -1016,-315 -259,0 -481,69 -667,207 -186,138 -279,305 -279,499 0,150 70,300 210,451l-911 0c-140,-151 -209,-301 -209,-451 0,-295 199,-529 595,-703 397,-173 829,-260 1297,-260 602,0 1135,129 1602,385 466,257 784,600 954,1029zm2235 384l-729 0 0 2570c0,68 35,128 106,179 69,52 151,77 245,77l0 193 -1612 0 0 -193c93,0 176,-24 245,-72 71,-48 105,-110 105,-184l0 -1799c-201,0 -367,78 -501,234 -132,157 -199,336 -199,536l-211 0c0,-215 -68,-397 -204,-547 -137,-149 -302,-223 -497,-223 -199,0 -366,84 -499,252 -134,168 -200,384 -200,648 0,261 74,484 225,671 150,186 344,279 580,279 178,0 353,-71 526,-212l140 161c-133,141 -293,251 -479,331 -185,79 -376,118 -572,118 -365,0 -677,-133 -939,-398 -262,-265 -392,-583 -392,-950 0,-354 129,-657 387,-908 257,-252 573,-377 944,-377 238,0 453,48 643,146 190,97 337,252 442,464l36 -7c156,-317 413,-475 770,-475l0 -514 -3454 0 0 -321 5094 0 0 321zm1877 0l-729 0 0 2498c0,220 118,328 351,328l0 193 -1612 0 0 -193c234,0 350,-108 350,-328l0 -2498 -504 0 0 -321 2144 0 0 321zm2592 -384l-910 0c-139,-352 -360,-633 -666,-842 -306,-210 -644,-315 -1016,-315 -259,0 -481,69 -668,207 -185,138 -278,305 -278,499 0,150 70,300 210,451l-911 0c-140,-151 -209,-301 -209,-451 0,-295 198,-529 596,-703 396,-173 828,-260 1296,-260 602,0 1135,129 1602,385 466,257 784,600 954,1029zm1891 384l-728 0 0 2570c0,68 35,128 105,179 70,52 152,77 246,77l0 193 -1612 0 0 -193c93,0 176,-24 245,-72 70,-48 105,-110 105,-184l0 -964 -700 0 0 578c0,242 -113,442 -339,599 -225,157 -485,236 -782,236 -308,0 -573,-81 -793,-244 -218,-163 -328,-373 -328,-630 0,-244 105,-448 316,-612 212,-166 480,-248 805,-248l209 0 0 -1285 -1499 0 0 -321 4750 0 0 321zm-1639 1285l0 -1285 -700 0 0 1285 700 0zm-1612 899l0 -578 -132 0c-192,0 -287,193 -287,578 0,386 69,579 210,579 140,0 209,-193 209,-579zm6566 -2184l-639 0 0 707 -770 0c-291,0 -540,93 -745,281 -204,187 -306,414 -306,683 0,267 102,494 306,682 205,187 454,280 745,280 351,0 677,-63 981,-192l105 160c-376,279 -808,418 -1296,418 -483,0 -896,-126 -1239,-377 -342,-252 -513,-555 -513,-908 0,-353 151,-655 451,-907 300,-251 663,-377 1090,-377l281 0 0 -450 -2032 0 0 -321 3581 0 0 321zm-575 -449l-841 0c-130,0 -271,-65 -421,-193l-980 -835c-101,-86 -265,-128 -490,-128l-280 0 0 -258 980 0c171,0 334,65 490,193l1017 835c156,128 284,193 385,193l140 0 0 193zm4329 449l-764 0 0 707 -1120 0c-120,0 -220,31 -300,95 -81,63 -121,139 -121,226 0,71 49,131 148,181 99,51 214,76 342,76l561 0c231,0 429,67 593,203 165,135 247,302 247,503 0,305 -161,551 -483,742 -323,191 -686,286 -1093,286 -435,0 -832,-141 -1190,-424 -360,-283 -605,-645 -737,-1085l245 -97c105,355 298,648 577,877 279,229 589,343 930,343 229,0 427,-56 592,-170 166,-113 248,-249 248,-407 0,-146 -67,-268 -201,-367 -134,-98 -301,-148 -499,-148l-420 0c-213,0 -395,-56 -545,-171 -151,-115 -226,-249 -226,-406 0,-144 94,-265 282,-365 188,-99 421,-149 699,-149l560 0 0 -450 -2347 0 0 -321 4022 0 0 321z"/>
   <path class="fil3 str1" d="M7397 2941l8387 0c1318,0 2397,1008 2397,2241l0 7844c0,1232 -1079,2241 -2397,2241l-8387 0c-1319,0 -2397,-1009 -2397,-2241l0 -7844c0,-1233 1078,-2241 2397,-2241z"/>
   <path class="fil0" d="M11591 4054c801,0 1451,603 1451,1347 0,744 -650,1348 -1451,1348 -802,0 -1452,-604 -1452,-1348 0,-744 650,-1347 1452,-1347zm-215 4961l429 0 0 -822c0,-165 30,-334 92,-506 96,-229 237,-427 422,-592 337,-293 841,-440 1514,-440 226,0 453,48 680,144l-31 1289 -114 -38 -288 -77c-48,0 -93,0 -134,0 -34,0 -58,0 -72,0 -350,0 -525,182 -525,545l0 497 1112 0 -41 1022 -958 0 0 2577 0 229c0,159 40,276 120,346 81,70 229,118 445,143l94 0 -31 822 -2106 0 -787 0 -2106 0 -31 -822 94 0c216,-25 364,-73 445,-143 80,-70 120,-187 120,-346l0 -229 0 -2577 -958 0 -41 -1022 1112 0 0 -497c0,-363 -175,-545 -525,-545 -14,0 -38,0 -72,0 -41,0 -86,0 -134,0l-288 77 -114 38 -31 -1289c227,-96 453,-144 680,-144 673,0 1177,147 1514,440 185,165 326,363 422,592 61,172 92,341 92,506l0 822zm214 4178c44,-39 80,-85 110,-138 41,-76 77,-197 105,-363l0 -153 0 -2502 -429 0 0 2502 0 153c28,166 64,287 105,363 30,53 66,99 109,138z"/>
  </g>
 </g>
</svg>
