<?xml version="1.0" encoding="UTF-8"?>
<!DOCTYPE svg PUBLIC "-//W3C//DTD SVG 1.1//EN" "http://www.w3.org/Graphics/SVG/1.1/DTD/svg11.dtd">
<!-- Creator: CorelDRAW X7 -->
<svg xmlns="http://www.w3.org/2000/svg" xml:space="preserve" width="210mm" height="297mm" version="1.1" style="shape-rendering:geometricPrecision; text-rendering:geometricPrecision; image-rendering:optimizeQuality; fill-rule:evenodd; clip-rule:evenodd"
viewBox="0 0 21000 29700"
 xmlns:xlink="http://www.w3.org/1999/xlink">
 <defs>
  <style type="text/css">
   <![CDATA[
    .fil0 {fill:white}
   ]]>
  </style>
 </defs>
 <g id="Layer_x0020_1">
  <metadata id="CorelCorpID_0Corel-Layer"/>
  <path class="fil0" d="M19500 4350l-18005 0c-825,0 -1495,680 -1495,1514l0 17972c0,834 670,1514 1495,1514l18005 0c825,0 1500,-680 1500,-1514l0 -17972c0,-834 -675,-1514 -1500,-1514zm-13153 18000l-3113 0 0 -10022 3118 0 0 10022 -5 0zm-1556 -11391c-999,0 -1805,-811 -1805,-1804 0,-994 806,-1805 1805,-1805 993,0 1804,811 1804,1805 0,998 -806,1804 -1804,1804l0 0zm13223 11391l-3112 0 0 -4875c0,-1162 -24,-2658 -1618,-2658 -1622,0 -1870,1266 -1870,2574l0 4959 -3112 0 0 -10022 2986 0 0 1369 42 0c417,-788 1434,-1617 2948,-1617 3150,0 3736,2076 3736,4776l0 5494z"/>
 </g>
</svg>
