<?xml version="1.0" encoding="UTF-8"?>
<!DOCTYPE svg PUBLIC "-//W3C//DTD SVG 1.1//EN" "http://www.w3.org/Graphics/SVG/1.1/DTD/svg11.dtd">
<!-- Creator: CorelDRAW X7 -->
<svg xmlns="http://www.w3.org/2000/svg" xml:space="preserve" width="210mm" height="297mm" version="1.1" style="shape-rendering:geometricPrecision; text-rendering:geometricPrecision; image-rendering:optimizeQuality; fill-rule:evenodd; clip-rule:evenodd"
viewBox="0 0 21000 29700"
 xmlns:xlink="http://www.w3.org/1999/xlink">
 <defs>
  <style type="text/css">
   <![CDATA[
    .fil0 {fill:white}
   ]]>
  </style>
 </defs>
 <g id="Layer_x0020_1">
  <metadata id="CorelCorpID_0Corel-Layer"/>
  <path class="fil0" d="M18750 4350l-16500 0c-1242,0 -2250,1008 -2250,2250l0 16500c0,1242 1008,2250 2250,2250l16500 0c1242,0 2250,-1008 2250,-2250l0 -16500c0,-1242 -1008,-2250 -2250,-2250zm-2292 7444c9,131 9,267 9,398 0,4064 -3094,8747 -8747,8747 -1743,0 -3361,-506 -4720,-1378 248,28 488,37 741,37 1439,0 2761,-487 3815,-1312 -1350,-28 -2484,-914 -2873,-2133 473,70 900,70 1387,-56 -1406,-286 -2461,-1524 -2461,-3019l0 -37c408,229 886,370 1388,389 -855,-568 -1369,-1528 -1369,-2555 0,-1 0,-3 0,-5 0,-571 150,-1096 417,-1551 1514,1866 3788,3084 6338,3216 -436,-2086 1125,-3779 3000,-3779 886,0 1683,371 2245,971 694,-132 1360,-389 1950,-741 -230,713 -712,1313 -1350,1692 619,-65 1219,-239 1772,-478 -417,614 -942,1158 -1542,1594l0 0z"/>
 </g>
</svg>
