<?xml version="1.0" encoding="UTF-8"?>
<!DOCTYPE svg PUBLIC "-//W3C//DTD SVG 1.1//EN" "http://www.w3.org/Graphics/SVG/1.1/DTD/svg11.dtd">
<!-- Creator: CorelDRAW X7 -->
<svg xmlns="http://www.w3.org/2000/svg" xml:space="preserve" width="210mm" height="297mm" version="1.1" style="shape-rendering:geometricPrecision; text-rendering:geometricPrecision; image-rendering:optimizeQuality; fill-rule:evenodd; clip-rule:evenodd"
viewBox="0 0 21000 29700"
 xmlns:xlink="http://www.w3.org/1999/xlink">
 <defs>
  <style type="text/css">
   <![CDATA[
    .fil0 {fill:white}
   ]]>
  </style>
 </defs>
 <g id="Layer_x0020_1">
  <metadata id="CorelCorpID_0Corel-Layer"/>
  <path class="fil0" d="M8756 12323l4463 2536 -4463 2536 0 -5072zm12244 -5723l0 16500c0,1242 -1008,2250 -2250,2250l-16500 0c-1242,0 -2250,-1008 -2250,-2250l0 -16500c0,-1242 1008,-2250 2250,-2250l16500 0c1242,0 2250,1008 2250,2250zm-1969 8264c0,0 0,-2794 -356,-4134 -197,-741 -773,-1322 -1509,-1519 -1327,-361 -6666,-361 -6666,-361 0,0 -5339,0 -6666,361 -736,197 -1312,778 -1509,1519 -356,1336 -356,4134 -356,4134 0,0 0,2794 356,4134 197,741 773,1299 1509,1496 1327,356 6666,356 6666,356 0,0 5339,0 6666,-361 736,-197 1312,-755 1509,-1495 356,-1336 356,-4130 356,-4130l0 0z"/>
 </g>
</svg>
